<svg class="main-svg" xmlns="http://www.w3.org/2000/svg" xmlns:xlink="http://www.w3.org/1999/xlink" width="2200" height="1000" style="" viewBox="0 0 1100 500"><rect x="0" y="0" width="1100" height="500" style="fill: rgb(255, 255, 255); fill-opacity: 1;"/><defs id="defs-996f2a"><g class="clips"><clipPath id="clip996f2axyplot" class="plotclip"><rect width="1014" height="385"/></clipPath><clipPath class="axesclip" id="clip996f2ax"><rect x="60" y="0" width="1014" height="500"/></clipPath><clipPath class="axesclip" id="clip996f2ay"><rect x="0" y="50" width="1100" height="385"/></clipPath><clipPath class="axesclip" id="clip996f2axy"><rect x="60" y="50" width="1014" height="385"/></clipPath></g><g class="gradients"/><g class="patterns"/></defs><g class="bglayer"/><g class="layer-below"><g class="imagelayer"/><g class="shapelayer"/></g><g class="cartesianlayer"><g class="subplot xy"><g class="layer-subplot"><g class="shapelayer"/><g class="imagelayer"/></g><g class="minor-gridlayer"><g class="x"/><g class="y"/></g><g class="gridlayer"><g class="x"><path class="xgrid crisp" transform="translate(262.8,0)" d="M0,50v385" style="stroke: rgb(0, 0, 0); stroke-opacity: 0.05; stroke-width: 1px;"/><path class="xgrid crisp" transform="translate(465.6,0)" d="M0,50v385" style="stroke: rgb(0, 0, 0); stroke-opacity: 0.05; stroke-width: 1px;"/><path class="xgrid crisp" transform="translate(668.4,0)" d="M0,50v385" style="stroke: rgb(0, 0, 0); stroke-opacity: 0.05; stroke-width: 1px;"/><path class="xgrid crisp" transform="translate(871.2,0)" d="M0,50v385" style="stroke: rgb(0, 0, 0); stroke-opacity: 0.05; stroke-width: 1px;"/></g><g class="y"><path class="ygrid crisp" transform="translate(0,395.16)" d="M60,0h1014" style="stroke: rgb(0, 0, 0); stroke-opacity: 0.05; stroke-width: 1px;"/><path class="ygrid crisp" transform="translate(0,355.33)" d="M60,0h1014" style="stroke: rgb(0, 0, 0); stroke-opacity: 0.05; stroke-width: 1px;"/><path class="ygrid crisp" transform="translate(0,315.49)" d="M60,0h1014" style="stroke: rgb(0, 0, 0); stroke-opacity: 0.05; stroke-width: 1px;"/><path class="ygrid crisp" transform="translate(0,275.65)" d="M60,0h1014" style="stroke: rgb(0, 0, 0); stroke-opacity: 0.05; stroke-width: 1px;"/><path class="ygrid crisp" transform="translate(0,235.82)" d="M60,0h1014" style="stroke: rgb(0, 0, 0); stroke-opacity: 0.05; stroke-width: 1px;"/><path class="ygrid crisp" transform="translate(0,195.98)" d="M60,0h1014" style="stroke: rgb(0, 0, 0); stroke-opacity: 0.05; stroke-width: 1px;"/><path class="ygrid crisp" transform="translate(0,156.14)" d="M60,0h1014" style="stroke: rgb(0, 0, 0); stroke-opacity: 0.05; stroke-width: 1px;"/><path class="ygrid crisp" transform="translate(0,116.31)" d="M60,0h1014" style="stroke: rgb(0, 0, 0); stroke-opacity: 0.05; stroke-width: 1px;"/><path class="ygrid crisp" transform="translate(0,76.47)" d="M60,0h1014" style="stroke: rgb(0, 0, 0); stroke-opacity: 0.05; stroke-width: 1px;"/></g></g><g class="zerolinelayer"><path class="xzl zl crisp" transform="translate(60,0)" d="M0,50v385" style="stroke: rgb(0, 0, 0); stroke-opacity: 0.05; stroke-width: 1px;"/><path class="yzl zl crisp" transform="translate(0,435)" d="M60,0h1014" style="stroke: rgb(0, 0, 0); stroke-opacity: 0.05; stroke-width: 1px;"/></g><g class="layer-between"><g class="shapelayer"/><g class="imagelayer"/></g><path class="xlines-below"/><path class="ylines-below"/><g class="overlines-below"/><g class="xaxislayer-below"/><g class="yaxislayer-below"/><g class="overaxes-below"/><g class="overplot"><g class="xy" transform="translate(60,50)" clip-path="url(#clip996f2axyplot)"><g class="scatterlayer mlayer"><g class="trace scatter tracef9b8b9" style="stroke-miterlimit: 2; opacity: 1;"><g class="fills"/><g class="errorbars"/><g class="lines"><path class="js-line" d="M0,384.98L91.26,383.32L101.4,382.77L121.68,380.54L131.82,378.63L141.96,376.71L152.1,373.74L162.24,370.76L172.38,365.97L182.52,361.18L192.66,353.59L202.8,346L212.94,336.04L223.08,326.08L233.22,312.23L243.36,298.38L253.5,283.2L273.78,251.97L283.92,235.91L304.2,199.98L314.34,184.34L334.62,154.18L344.76,139.65L365.04,112.66L375.18,104.31L385.32,95.97L395.46,84.6L405.6,73.24L415.74,68.75L446.16,54.75L456.3,53.12L466.44,51.49L476.58,49.03L486.72,46.57L496.86,41.83L527.28,28L537.42,24.4L547.56,20.79L557.7,20.55L567.84,20.32L577.98,30.85L588.12,41.39L598.26,58.37L608.4,75.35L618.54,102.64L659.1,209.69L669.24,236.23L699.66,298.32L709.8,318.03L730.08,344.78L740.22,354.17L750.36,363.55L760.5,368.5L770.64,373.45L780.78,376.25L790.92,379.04L801.06,380.36L821.34,382.39L831.48,383.11L953.16,384.9L963.3,384.94L1014,385" style="vector-effect: none; fill: none; stroke: rgb(240, 173, 78); stroke-opacity: 1; stroke-width: 2px; opacity: 1;"/></g><g class="points"/><g class="text"/></g><g class="trace scatter trace19cc1d" style="stroke-miterlimit: 2; opacity: 1;"><g class="fills"/><g class="errorbars"/><g class="lines"><path class="js-line" d="M0,384.98L91.26,383.13L101.4,382.48L121.68,380.18L131.82,378.29L141.96,376.25L152.1,373.13L162.24,369.7L172.38,364.81L182.52,360.03L192.66,352.65L202.8,344.72L212.94,334.85L223.08,324.38L233.22,310.65L243.36,297.39L253.5,287L273.78,255.48L283.92,239.15L304.2,204.98L314.34,186.68L324.48,171.31L334.62,157.64L354.9,127.82L365.04,114.63L375.18,105.17L385.32,98.34L405.6,74.58L415.74,69.61L446.16,56.17L456.3,52.67L466.44,50.83L476.58,47.02L486.72,44.52L496.86,43.51L507,39.07L517.14,33.07L537.42,23.88L547.56,19.45L567.84,19.53L577.98,25.9L588.12,35.73L598.26,52.25L608.4,68.65L618.54,94.11L628.68,122.05L638.82,147.6L679.38,252.16L689.52,272.86L709.8,312.46L719.94,327.68L730.08,341.2L740.22,352.02L750.36,361.23L760.5,367.02L770.64,371.66L780.78,375.08L801.06,379.79L811.2,381.69L882.18,384.21L892.32,384.4L953.16,384.9L963.3,384.94L1014,385" style="vector-effect: none; fill: none; stroke: rgb(240, 173, 78); stroke-opacity: 1; stroke-width: 2px; opacity: 1;"/></g><g class="points"/><g class="text"/></g><g class="trace scatter tracefcdf00" style="stroke-miterlimit: 2; opacity: 1;"><g class="fills"/><g class="errorbars"/><g class="lines"><path class="js-line" d="M0,384.92L91.26,383.62L101.4,383.19L141.96,379.38L152.1,377.15L162.24,374.92L172.38,370.84L182.52,366.75L192.66,361.47L202.8,356.18L212.94,347.71L223.08,339.25L233.22,328.92L263.64,297.68L273.78,286.27L283.92,274.87L294.06,261.14L314.34,232.45L324.48,217.49L344.76,198.33L354.9,186.67L365.04,175.02L375.18,166.44L385.32,157.85L395.46,150.55L405.6,143.25L415.74,138.6L446.16,124.03L456.3,122.65L466.44,121.26L476.58,118.63L527.28,105.63L537.42,101.1L547.56,96.58L557.7,99.57L567.84,102.56L577.98,108.73L588.12,114.91L598.26,127.27L608.4,139.63L618.54,161.47L638.82,203.43L648.96,223.56L669.24,265.47L679.38,283.92L689.52,302.38L699.66,317.51L709.8,332.63L719.94,342.57L730.08,352.51L740.22,359.97L750.36,367.43L760.5,371.9L770.64,376.38L780.78,378.4L790.92,380.42L801.06,381.62L811.2,382.83L821.34,383.16L892.32,384.72L902.46,384.74L1014,385" style="vector-effect: none; fill: none; stroke: rgb(240, 173, 78); stroke-opacity: 1; stroke-width: 2px; opacity: 1;"/></g><g class="points"/><g class="text"/></g><g class="trace scatter trace6b576f" style="stroke-miterlimit: 2; opacity: 1;"><g class="fills"/><g class="errorbars"/><g class="lines"><path class="js-line" d="M0,384.88L91.26,383.52L101.4,383.1L141.96,379.24L152.1,377L162.24,374.33L172.38,370.16L182.52,366.03L192.66,360.73L202.8,355.15L212.94,346.47L233.22,327.71L243.36,317.7L253.5,310.17L263.64,299.78L283.92,277.43L294.06,264.49L304.2,251.1L314.34,236.33L324.48,221.02L334.62,209.58L344.76,199.65L354.9,186.94L365.04,176.75L375.18,169.84L385.32,161.61L395.46,152.17L405.6,144.35L415.74,139.12L425.88,134.69L436.02,129.08L446.16,124.34L456.3,122.47L496.86,114L507,111.51L527.28,106L537.42,99.98L547.56,95.11L557.7,97.97L567.84,101.21L577.98,105.53L588.12,110.86L598.26,122.32L608.4,135.1L618.54,155.2L638.82,197.29L648.96,217.15L689.52,296.59L699.66,313.59L709.8,328.69L719.94,339.65L730.08,349.57L740.22,358.23L750.36,365.81L760.5,370.54L770.64,374.51L780.78,377.67L790.92,380.16L801.06,381.36L821.34,383.04L831.48,383.46L953.16,384.94L963.3,384.96L1014,385" style="vector-effect: none; fill: none; stroke: rgb(240, 173, 78); stroke-opacity: 1; stroke-width: 2px; opacity: 1;"/></g><g class="points"/><g class="text"/></g><g class="trace scatter tracef47312" style="stroke-miterlimit: 2; opacity: 1;"><g class="fills"/><g class="errorbars"/><g class="lines"><path class="js-line" d="M0,384.92L91.26,383.56L101.4,383.07L121.68,382.23L131.82,380.7L152.1,377.19L162.24,375.22L202.8,358.65L212.94,350.3L243.36,324.69L253.5,314.84L283.92,284.59L294.06,272.06L304.2,259.53L314.34,249.14L324.48,238.74L334.62,229.55L344.76,220.36L354.9,210.08L365.04,199.8L375.18,195.38L385.32,190.96L395.46,184.36L405.6,177.77L415.74,177.53L425.88,177.29L436.02,174.26L446.16,171.24L456.3,171.86L486.72,174.08L496.86,171.63L507,169.17L517.14,168.53L527.28,167.89L537.42,165.53L547.56,163.17L557.7,166.13L567.84,169.09L577.98,174.79L588.12,180.5L598.26,193.46L618.54,220.12L628.68,233.82L669.24,298.04L679.38,311.89L689.52,325.74L699.66,335.48L719.94,354.18L730.08,363.13L750.36,373.41L760.5,376.25L770.64,379.08L780.78,380.75L790.92,382.41L801.06,382.96L831.48,384.14L841.62,384.37L892.32,384.86L902.46,384.9L1014,385" style="vector-effect: none; fill: none; stroke: rgb(240, 173, 78); stroke-opacity: 1; stroke-width: 2px; opacity: 1;"/></g><g class="points"/><g class="text"/></g><g class="trace scatter trace3dfc06" style="stroke-miterlimit: 2; opacity: 1;"><g class="fills"/><g class="errorbars"/><g class="lines"><path class="js-line" d="M0,384.92L91.26,383.41L101.4,382.86L121.68,381.78L131.82,380.4L152.1,376.87L162.24,374.63L202.8,357.85L212.94,349.6L243.36,323.41L253.5,316.45L273.78,298.44L283.92,287.1L304.2,262.11L314.34,250.4L324.48,239.91L334.62,230.77L344.76,222.33L354.9,212.45L365.04,202.04L375.18,196.12L385.32,192.57L395.46,186.21L405.6,179.21L415.74,176.44L425.88,176.52L436.02,174.36L446.16,171.4L456.3,172.31L486.72,172.9L496.86,171.14L507,169L517.14,167.85L537.42,165.74L547.56,163.58L557.7,163.78L567.84,166.47L588.12,178.68L598.26,188.79L608.4,201.01L618.54,215.44L638.82,244.42L648.96,260.53L679.38,308L689.52,321.8L709.8,342.28L719.94,352.19L730.08,361.34L740.22,367.15L750.36,372.05L760.5,375.34L780.78,379.91L790.92,381.81L821.34,383.78L831.48,384.12L922.74,384.95L932.88,384.94L1014,385" style="vector-effect: none; fill: none; stroke: rgb(240, 173, 78); stroke-opacity: 1; stroke-width: 2px; opacity: 1;"/></g><g class="points"/><g class="text"/></g></g></g></g><g class="zerolinelayer-above"/><path class="xlines-above crisp" d="M0,0" style="fill: none;"/><path class="ylines-above crisp" d="M0,0" style="fill: none;"/><g class="overlines-above"/><g class="xaxislayer-above"><g class="xtick"><text text-anchor="middle" x="0" y="451" transform="translate(60,0)" style="font-family: 'Lucida Grande', 'Open Sans', verdana, arial, sans-serif; font-size: 10px; fill: rgb(0, 0, 0); fill-opacity: 1; white-space: pre;">0%</text></g><g class="xtick"><text text-anchor="middle" x="0" y="451" style="font-family: 'Lucida Grande', 'Open Sans', verdana, arial, sans-serif; font-size: 10px; fill: rgb(0, 0, 0); fill-opacity: 1; white-space: pre;" transform="translate(262.8,0)">20%</text></g><g class="xtick"><text text-anchor="middle" x="0" y="451" style="font-family: 'Lucida Grande', 'Open Sans', verdana, arial, sans-serif; font-size: 10px; fill: rgb(0, 0, 0); fill-opacity: 1; white-space: pre;" transform="translate(465.6,0)">40%</text></g><g class="xtick"><text text-anchor="middle" x="0" y="451" style="font-family: 'Lucida Grande', 'Open Sans', verdana, arial, sans-serif; font-size: 10px; fill: rgb(0, 0, 0); fill-opacity: 1; white-space: pre;" transform="translate(668.4,0)">60%</text></g><g class="xtick"><text text-anchor="middle" x="0" y="451" style="font-family: 'Lucida Grande', 'Open Sans', verdana, arial, sans-serif; font-size: 10px; fill: rgb(0, 0, 0); fill-opacity: 1; white-space: pre;" transform="translate(871.2,0)">80%</text></g><g class="xtick"><text text-anchor="middle" x="0" y="451" style="font-family: 'Lucida Grande', 'Open Sans', verdana, arial, sans-serif; font-size: 10px; fill: rgb(0, 0, 0); fill-opacity: 1; white-space: pre;" transform="translate(1074,0)">100%</text></g></g><g class="yaxislayer-above"><g class="ytick"><text text-anchor="end" x="54" y="3.5" transform="translate(0,435)" style="font-family: 'Lucida Grande', 'Open Sans', verdana, arial, sans-serif; font-size: 10px; fill: rgb(0, 0, 0); fill-opacity: 1; white-space: pre;">0</text></g><g class="ytick"><text text-anchor="end" x="54" y="3.5" style="font-family: 'Lucida Grande', 'Open Sans', verdana, arial, sans-serif; font-size: 10px; fill: rgb(0, 0, 0); fill-opacity: 1; white-space: pre;" transform="translate(0,395.16)">2k</text></g><g class="ytick"><text text-anchor="end" x="54" y="3.5" style="font-family: 'Lucida Grande', 'Open Sans', verdana, arial, sans-serif; font-size: 10px; fill: rgb(0, 0, 0); fill-opacity: 1; white-space: pre;" transform="translate(0,355.33)">4k</text></g><g class="ytick"><text text-anchor="end" x="54" y="3.5" style="font-family: 'Lucida Grande', 'Open Sans', verdana, arial, sans-serif; font-size: 10px; fill: rgb(0, 0, 0); fill-opacity: 1; white-space: pre;" transform="translate(0,315.49)">6k</text></g><g class="ytick"><text text-anchor="end" x="54" y="3.5" style="font-family: 'Lucida Grande', 'Open Sans', verdana, arial, sans-serif; font-size: 10px; fill: rgb(0, 0, 0); fill-opacity: 1; white-space: pre;" transform="translate(0,275.65)">8k</text></g><g class="ytick"><text text-anchor="end" x="54" y="3.5" style="font-family: 'Lucida Grande', 'Open Sans', verdana, arial, sans-serif; font-size: 10px; fill: rgb(0, 0, 0); fill-opacity: 1; white-space: pre;" transform="translate(0,235.82)">10k</text></g><g class="ytick"><text text-anchor="end" x="54" y="3.5" style="font-family: 'Lucida Grande', 'Open Sans', verdana, arial, sans-serif; font-size: 10px; fill: rgb(0, 0, 0); fill-opacity: 1; white-space: pre;" transform="translate(0,195.98)">12k</text></g><g class="ytick"><text text-anchor="end" x="54" y="3.5" style="font-family: 'Lucida Grande', 'Open Sans', verdana, arial, sans-serif; font-size: 10px; fill: rgb(0, 0, 0); fill-opacity: 1; white-space: pre;" transform="translate(0,156.14)">14k</text></g><g class="ytick"><text text-anchor="end" x="54" y="3.5" style="font-family: 'Lucida Grande', 'Open Sans', verdana, arial, sans-serif; font-size: 10px; fill: rgb(0, 0, 0); fill-opacity: 1; white-space: pre;" transform="translate(0,116.31)">16k</text></g><g class="ytick"><text text-anchor="end" x="54" y="3.5" style="font-family: 'Lucida Grande', 'Open Sans', verdana, arial, sans-serif; font-size: 10px; fill: rgb(0, 0, 0); fill-opacity: 1; white-space: pre;" transform="translate(0,76.47)">18k</text></g></g><g class="overaxes-above"/></g></g><g class="polarlayer"/><g class="smithlayer"/><g class="ternarylayer"/><g class="geolayer"/><g class="funnelarealayer"/><g class="pielayer"/><g class="iciclelayer"/><g class="treemaplayer"/><g class="sunburstlayer"/><g class="glimages"/><defs id="topdefs-996f2a"><g class="clips"/></defs><g class="layer-above"><g class="imagelayer"/><g class="shapelayer"/></g><g class="infolayer"><g class="g-gtitle"><text class="gtitle" x="550" y="25" text-anchor="middle" dy="0em" style="opacity: 1; font-family: 'Lucida Grande', 'Open Sans', verdana, arial, sans-serif; font-size: 20px; fill: rgb(68, 68, 68); fill-opacity: 1; white-space: pre;"><tspan class="line" dy="0em" x="550" y="25">FastQC: Per Sequence GC Content</tspan><tspan class="line" dy="1.3em" x="550" y="25">​<tspan style="font-size:70%" dy="-0.6em">Counts, 6 lines</tspan><tspan dy="0.42em">​</tspan></tspan></text></g><g class="g-xtitle"><text class="xtitle" x="567" y="487" text-anchor="middle" style="opacity: 0.3; font-family: 'Lucida Grande', 'Open Sans', verdana, arial, sans-serif; font-size: 14px; fill: rgb(0, 0, 0); fill-opacity: 1; white-space: pre;">% GC</text></g><g class="g-ytitle"><text class="ytitle" transform="rotate(-90,22,242.5)" x="22" y="242.5" text-anchor="middle" style="opacity: 0.3; font-family: 'Lucida Grande', 'Open Sans', verdana, arial, sans-serif; font-size: 14px; fill: rgb(0, 0, 0); fill-opacity: 1; white-space: pre;">Count</text></g></g></svg>